PathFileType	4	(X/Y/Z)	D:\TRACE\spotREDO_2-26-24\spot_justArm_Motion_1_1-v60.trc
DataRate	CameraRate	NumFrames	NumMarkers	Units	OrigDataRate	OrigDataStartFrame	OrigNumFrames
100.00	100.00	      28	9	mm	100.00	5251	      7000
Frame#	Time	front left toe			Front right toe			aft left toe			aft right toe			Arm			FL body			FR body			AL Body			AR Body			
		X1	Y1	Z1	X2	Y2	Z2	X3	Y3	Z3	X4	Y4	Z4	X5	Y5	Z5	X6	Y6	Z6	X7	Y7	Z7	X8	Y8	Z8	X9	Y9	Z9	

5251	52.500	-303.35880	17.99244	-35.30989	129.31035	21.15116	-157.25168	-173.81181	24.61655	552.39178	263.14014	30.54559	444.49960	-33.64130	720.21271	-764.27734	-201.23360	554.47931	-129.87706	-49.07905	556.17670	-166.51234	-2.66572	557.55042	731.32483	142.75545	555.96875	699.32574	
5252	52.510	-303.06329	18.10016	-35.41664	129.75308	21.13104	-157.22935	-173.16882	25.05532	552.31097	263.94229	30.84144	444.50049	-32.60082	719.65045	-764.42914	-200.22180	554.21179	-129.81975	-48.15858	555.89368	-166.58630	-1.61008	557.91345	731.14215	143.72029	556.32782	699.34595	
5253	52.520	-302.43167	18.07071	-35.56681	130.40659	20.90415	-157.31374	-172.34743	25.16376	552.28101	264.46100	30.94447	444.47147	-31.58634	719.04938	-764.84320	-199.24159	553.91229	-129.88795	-46.83750	555.44775	-166.47253	-0.75432	558.51123	730.96667	144.60747	556.78223	699.06348	
5254	52.530	-301.56424	18.14510	-35.62506	131.14372	21.08529	-157.29436	-171.72978	25.47723	552.23303	265.39865	31.19206	444.39886	-30.39651	718.59143	-765.12598	-198.02080	553.63104	-130.02602	-45.48413	555.03882	-166.36316	-0.25231	558.93903	730.94800	144.72043	556.53607	698.52649	
5255	52.540	-300.97217	18.06978	-35.73677	131.79691	20.97774	-157.30728	-171.28606	25.77122	552.08893	266.00323	31.47253	444.28806	-29.31685	718.13123	-765.35022	-197.19490	553.44220	-130.13608	-44.45153	554.80164	-166.43382	1.06637	559.57404	730.91791	146.57927	557.79126	699.19214	
5256	52.550	-300.60321	18.31358	-36.13713	132.36285	20.52637	-157.40324	-170.95187	26.15579	551.93945	266.14297	31.52305	444.11374	-28.49898	717.64642	-765.52191	-195.99178	553.24011	-130.33089	-43.29382	554.39178	-166.46890	1.80142	560.01282	730.82428	147.28056	558.02380	698.86731	
5257	52.560	-300.04016	18.28141	-35.90721	132.91341	20.27607	-157.35826	-170.12103	26.23120	551.97668	266.20871	31.59038	444.03705	-27.52121	717.20978	-765.71222	-194.86636	552.97052	-130.44009	-42.16772	553.95770	-166.66510	2.69469	560.55719	730.75781	148.36536	558.44653	698.81744	
5258	52.570	-299.43878	18.27807	-35.92597	133.35631	20.15656	-157.34052	-169.50873	26.47817	551.96234	267.23242	31.96758	444.07413	-26.86990	716.88434	-765.89972	-194.32503	553.26599	-131.15286	-41.29911	553.69757	-167.13359	3.55229	561.09296	730.60333	149.08160	558.86615	698.80957	
5259	52.580	-298.91818	18.10195	-36.08905	133.38741	19.63333	-157.29660	-169.30157	26.99603	551.87671	268.12457	32.36087	444.10443	-26.27471	716.64679	-766.12769	-192.73517	552.55103	-130.78407	-40.40346	553.42383	-167.31793	4.71444	562.09515	731.01495	149.91565	559.35468	698.81702	
5260	52.590	-298.39816	18.07072	-36.19136	134.40535	20.27330	-157.61995	-168.86127	27.49272	551.66589	268.61157	32.52104	443.99918	-25.95299	716.52606	-766.27515	-191.52721	552.23444	-130.82852	-39.32743	553.10712	-167.31473	5.35986	562.07776	730.53046	151.00771	559.70349	698.80920	
5261	52.600	-297.94922	18.16138	-36.28958	134.95345	19.93444	-157.75862	-168.40903	27.74418	551.64081	268.69376	32.56389	443.86133	-25.52872	716.45453	-766.46564	-190.72342	552.03534	-130.98718	-38.09726	552.77582	-167.37572	6.30007	562.85681	730.80988	151.58171	560.08282	698.75958	
5262	52.610	-297.66849	18.41954	-36.70301	135.30760	20.10952	-157.83212	-167.97794	27.82962	551.61584	269.23944	32.87844	443.81595	-25.19245	716.40887	-766.58972	-189.62068	551.76465	-131.09201	-37.05157	552.43793	-167.49684	7.24086	563.24481	730.60669	152.70859	560.51135	698.53412	
5263	52.620	-297.29987	18.37912	-36.45355	135.91928	20.01105	-157.70326	-167.58763	28.10390	551.47620	269.31494	32.92385	443.66025	-24.79437	716.40277	-766.78326	-188.67130	551.55438	-131.17763	-36.11980	552.17346	-167.60272	8.47498	563.61017	730.48981	153.46973	560.39362	698.02582	
5264	52.630	-296.92142	18.35117	-36.51497	135.77614	19.04026	-157.69356	-167.01787	28.56052	551.23651	269.72974	33.06604	443.53638	-24.46481	716.38824	-767.05573	-187.77896	551.29150	-131.28172	-35.14188	552.01910	-167.64020	9.60369	563.85040	730.32178	154.75543	561.34210	698.42224	
5265	52.640	-296.53525	18.25587	-36.61876	136.04268	18.98454	-157.71790	-166.72467	28.93805	551.19849	270.30859	33.28819	443.44595	-24.06909	716.49609	-767.32288	-186.58662	550.84741	-131.41061	-34.15585	551.82275	-167.66057	9.93706	564.41467	730.35651	155.79610	561.75806	698.35229	
5266	52.650	-296.15250	18.32670	-36.79790	136.21208	18.85266	-157.84386	-166.62057	29.26443	551.07581	270.58539	33.39571	443.30585	-23.86304	716.57965	-767.40668	-185.95731	550.72168	-131.46075	-33.38607	551.63037	-167.77206	11.10722	564.70117	730.09406	156.67899	562.10291	698.08478	
5267	52.660	-295.95798	18.38675	-36.94839	136.37842	18.77128	-157.90694	-166.33435	29.67063	550.87170	270.93448	33.62889	443.22028	-23.56640	716.68274	-767.46045	-184.94019	550.55621	-131.49342	-32.76028	551.48975	-167.92221	12.17475	565.03156	730.01508	157.56624	562.54083	698.15497	
5268	52.670	-295.77496	18.44927	-37.02723	136.61957	18.68428	-157.92210	-166.03174	30.10601	550.76215	271.09750	33.78992	443.08905	-23.34443	717.03259	-767.73975	-184.10959	550.39111	-131.54314	-31.39894	551.28546	-167.68022	12.75158	565.07092	729.61804	158.60880	563.04767	698.14178	
5269	52.680	-295.51532	18.43228	-37.12664	136.83156	18.65440	-157.92885	-165.78201	30.29596	550.76593	271.19818	33.94045	443.02094	-23.12634	717.47992	-767.93243	-183.60187	550.43457	-132.07863	-30.19007	551.20190	-167.63661	13.75544	565.59259	729.89526	159.28949	563.42493	698.13055	
5270	52.690	-295.43396	18.51841	-37.19545	137.16496	18.60585	-157.97932	-165.60162	30.60913	550.63477	271.29367	34.05418	442.92938	-23.08802	717.79889	-767.95508	-182.42314	550.03680	-131.59625	-29.92924	551.38226	-168.19260	14.90771	565.80487	729.67877	160.39793	563.72095	698.01892	
5271	52.700	-295.26010	18.53067	-37.29449	137.41409	18.49792	-158.06934	-165.50389	30.86044	550.58374	271.35263	34.23517	442.80682	-22.74164	717.81989	-768.03821	-181.73703	549.88806	-131.67114	-29.39303	551.54590	-168.26286	15.67925	565.97693	729.54724	161.16351	564.03857	697.86346	
5272	52.710	-295.12079	18.55752	-37.35692	137.41388	18.28550	-158.30998	-165.54742	31.25012	550.35291	271.40189	34.48356	442.62842	-22.39681	717.78503	-768.03467	-180.90160	550.00897	-131.76103	-28.54699	551.69775	-168.12062	16.37286	566.14081	729.50421	162.11450	564.33563	697.62427	
5273	52.720	-295.05356	18.53783	-37.41823	137.56429	18.33128	-158.40831	-165.17325	31.58771	550.25269	271.66385	34.78433	442.51520	-21.76625	717.39771	-767.81024	-180.24156	550.07404	-131.75179	-27.73064	551.95392	-168.25282	17.48241	566.12805	729.50885	163.06610	564.60541	697.49878	
5274	52.730	-295.07294	18.54117	-37.71041	137.77667	18.38032	-158.47217	-165.10147	31.97672	550.11438	272.02209	35.00996	442.50833	-20.72899	716.45441	-767.42517	-179.50891	550.22272	-131.71942	-27.00250	552.40448	-168.35619	18.25108	566.09222	729.38055	163.81178	564.87604	697.46960	
5275	52.740	-295.02921	18.50675	-37.74628	138.60320	19.07712	-157.98991	-165.03409	32.36399	549.99408	272.39270	35.18552	442.57306	-20.03571	715.61255	-767.50867	-179.42133	550.55847	-132.18225	-26.53173	552.86169	-168.27763	19.25015	566.05835	729.27472	164.75574	565.04950	697.34033	
5276	52.750	-295.01712	18.52637	-37.75684	137.52953	18.02646	-158.74823	-164.74783	32.60485	549.93011	272.64752	35.28543	442.62018	-18.72860	714.12866	-767.57715	-178.64784	550.53735	-131.63565	-26.34503	553.21729	-168.30545	20.10547	566.11530	729.24200	165.50029	565.38666	697.22772	
5277	52.760	-294.91779	18.45052	-37.80476	137.35770	17.97303	-158.94441	-164.56659	33.00261	550.03711	272.59723	35.26418	442.61160	-17.01629	712.13055	-767.66418	-178.24358	550.59540	-131.52985	-26.08469	553.59497	-168.44138	20.88940	566.31873	729.16235	166.17853	565.82318	697.10278	
5278	52.770	-294.88287	18.51824	-37.87132	137.58730	17.65639	-158.96210	-164.40793	33.16575	550.02118	272.63190	35.41658	442.58618	-15.13198	710.26611	-767.97083	-177.79465	550.52911	-131.68347	-25.65132	553.92413	-168.56693	22.00595	566.58850	729.11426	167.14716	566.12213	696.90485	
